<svg width="229" height="49" viewBox="0 0 229 49" fill="none" xmlns="http://www.w3.org/2000/svg">
<path d="M0.164062 33.9766H3.01764V46.1434H9.79181V48.3932H0.164062V33.9766Z" fill="#004C97" style="fill:#004C97;fill:color(display-p3 0.0000 0.2980 0.5922);fill-opacity:1;"/>
<path d="M12.3125 33.9766H15.1563V43.2188C15.1563 43.7009 15.2395 44.1279 15.401 44.5043C15.5625 44.8762 15.8024 45.193 16.1009 45.4501C16.3995 45.7073 16.7666 45.9047 17.1973 46.0424C17.6281 46.1756 18.098 46.249 18.6266 46.249C19.1552 46.249 19.63 46.1756 20.0558 46.0424C20.4817 45.9093 20.8536 45.7119 21.1571 45.4501C21.4606 45.193 21.6955 44.8762 21.8668 44.4998C22.0284 44.1233 22.1116 43.6917 22.1116 43.2004V33.9812H24.9602V43.2234C24.9602 44.0314 24.8085 44.766 24.505 45.4272C24.2065 46.0929 23.7757 46.6622 23.2226 47.1397C22.6696 47.6172 22.0039 47.9891 21.2305 48.2508C20.4572 48.5125 19.6006 48.6457 18.656 48.6457C17.7113 48.6457 16.84 48.5125 16.0618 48.2508C15.2835 47.9891 14.613 47.6172 14.055 47.1397C13.497 46.6668 13.0663 46.0929 12.7677 45.4272C12.4642 44.766 12.3125 44.0269 12.3125 43.2234V33.9812V33.9766Z" fill="#004C97" style="fill:#004C97;fill:color(display-p3 0.0000 0.2980 0.5922);fill-opacity:1;"/>
<path d="M43.9793 44.6937C44.3268 44.9876 44.7037 45.2401 45.1149 45.4605C45.4673 45.6533 45.8735 45.8278 46.3483 45.9885C46.8182 46.1446 47.3321 46.2272 47.895 46.2272C48.1887 46.2272 48.4775 46.1905 48.7516 46.117C49.0257 46.0436 49.2655 45.938 49.476 45.7956C49.6914 45.6533 49.8578 45.4743 49.985 45.2539C50.1123 45.0335 50.171 44.7764 50.171 44.478C50.171 44.1566 50.0633 43.8765 49.8529 43.6377C49.6375 43.399 49.3585 43.1832 49.011 42.9858C48.6586 42.793 48.2621 42.6093 47.8216 42.4394C47.3811 42.265 46.9259 42.0859 46.4609 41.8931C46.0008 41.7002 45.5456 41.489 45.1051 41.2595C44.6646 41.0253 44.2632 40.7544 43.9157 40.4468C43.5633 40.1346 43.2843 39.7765 43.0738 39.3633C42.8633 38.9547 42.7556 38.4726 42.7556 37.917C42.7556 37.3202 42.8878 36.7692 43.1521 36.255C43.4164 35.7454 43.7884 35.2954 44.2583 34.9281C44.7331 34.5562 45.2862 34.267 45.9274 34.0512C46.5686 33.84 47.2636 33.7344 48.0223 33.7344C48.7809 33.7344 49.476 33.817 50.0584 33.9777C50.6409 34.1384 51.1304 34.3175 51.5268 34.5057C51.9869 34.7307 52.3785 34.9878 52.7016 35.2816L51.4632 37.412C51.1597 37.1778 50.8318 36.9758 50.4696 36.7876C50.1514 36.6269 49.7843 36.4845 49.3683 36.3514C48.9523 36.2183 48.4971 36.154 48.0027 36.154C47.6699 36.154 47.3615 36.1999 47.0727 36.2825C46.7839 36.3698 46.5392 36.4891 46.3238 36.6407C46.1085 36.7922 45.9421 36.9758 45.8197 37.187C45.6973 37.3982 45.6386 37.6324 45.6386 37.8803C45.6386 38.1971 45.7463 38.4726 45.9567 38.7067C46.1672 38.9363 46.4462 39.1475 46.7937 39.3357C47.1363 39.524 47.5328 39.6984 47.9733 39.8591C48.4139 40.0244 48.8642 40.1943 49.3243 40.3825C49.7844 40.5662 50.2347 40.7728 50.6801 41.0024C51.1206 41.2273 51.5171 41.5028 51.8597 41.8196C52.2072 42.1364 52.4862 42.5083 52.6967 42.9307C52.9071 43.3531 53.0148 43.8535 53.0148 44.4274C53.0148 45.0014 52.8973 45.5431 52.6673 46.0528C52.4323 46.5624 52.0946 47.0077 51.6541 47.3934C51.2087 47.7791 50.6703 48.0867 50.0291 48.3117C49.3879 48.5366 48.6635 48.6468 47.8412 48.6468C47.4007 48.6468 46.9895 48.6193 46.6028 48.5596C46.2211 48.5045 45.8589 48.4264 45.526 48.3392C45.1883 48.2474 44.8799 48.1418 44.596 48.027C44.3121 47.9122 44.0527 47.7929 43.8276 47.6643C43.2892 47.375 42.8242 47.0445 42.4375 46.6726L43.9793 44.6983V44.6937Z" fill="#004C97" style="fill:#004C97;fill:color(display-p3 0.0000 0.2980 0.5922);fill-opacity:1;"/>
<path d="M56.4531 33.9766H59.3067V40.083H66.4773V33.9766H69.326V48.3932H66.4773V42.3419H59.3067V48.3932H56.4531V33.9766Z" fill="#004C97" style="fill:#004C97;fill:color(display-p3 0.0000 0.2980 0.5922);fill-opacity:1;"/>
<path d="M162.039 33.9766H164.893V40.083H172.063V33.9766H174.912V48.3932H172.063V42.3419H164.893V48.3932H162.039V33.9766Z" fill="#A9C23F" style="fill:#A9C23F;fill:color(display-p3 0.6627 0.7608 0.2471);fill-opacity:1;"/>
<path d="M89.2031 33.9766H94.2544C94.6802 33.9766 95.0522 33.9857 95.3753 33.9995C95.6934 34.0179 95.9773 34.0408 96.222 34.0776C96.4619 34.1097 96.6821 34.151 96.873 34.2015C97.0639 34.252 97.245 34.3117 97.4163 34.3852C98.2093 34.7066 98.8309 35.207 99.2959 35.8773C99.756 36.5477 99.986 37.3649 99.986 38.3245C99.986 38.7515 99.9273 39.1739 99.8049 39.5825C99.6825 39.9911 99.5112 40.3722 99.2812 40.7165C99.056 41.0655 98.777 41.3731 98.4491 41.6394C98.1212 41.9057 97.7492 42.1169 97.3331 42.2684V42.3051C97.3772 42.3465 97.4261 42.397 97.4848 42.4658C97.5338 42.5209 97.5925 42.5898 97.6513 42.6816C97.7149 42.778 97.7834 42.8836 97.8617 43.0122L101.087 48.3977H97.9058L94.7928 43.0122H92.0616V48.3977H89.2031V33.9812V33.9766ZM94.6117 40.7395C95.3704 40.7395 95.9773 40.5375 96.4178 40.1426C96.8583 39.7432 97.0786 39.1877 97.0786 38.4668C97.0786 38.1225 97.0345 37.8103 96.9415 37.5348C96.8534 37.2593 96.6968 37.0206 96.4766 36.8277C96.2563 36.6303 95.9675 36.4834 95.5955 36.3824C95.2333 36.2768 94.7683 36.2263 94.2054 36.2263H92.0469V40.7395H94.6019H94.6117Z" fill="#004C97" style="fill:#004C97;fill:color(display-p3 0.0000 0.2980 0.5922);fill-opacity:1;"/>
<path d="M104.297 33.9772H113.685V36.227H107.15V40.0056H112.422V42.2645H107.15V46.1395H114.027V48.3893H104.297V33.9727V33.9772Z" fill="#004C97" style="fill:#004C97;fill:color(display-p3 0.0000 0.2980 0.5922);fill-opacity:1;"/>
<path d="M133.312 33.9772H142.7V36.227H136.166V40.0056H141.438V42.2645H136.166V46.1395H143.043V48.3893H133.312V33.9727V33.9772Z" fill="#A9C23F" style="fill:#A9C23F;fill:color(display-p3 0.6627 0.7608 0.2471);fill-opacity:1;"/>
<path d="M40.737 48.3932L35.764 41.0425L40.551 33.9766H37.2912L34.1341 38.6321L30.982 33.9766H27.7172L32.5042 41.0425L27.5312 48.3932H30.7911L34.1341 43.4529L37.4772 48.3932H40.737Z" fill="#004C97" style="fill:#004C97;fill:color(display-p3 0.0000 0.2980 0.5922);fill-opacity:1;"/>
<path d="M83.2162 48.3932H86.1579L80.6172 33.9766H77.6706L72.125 48.3932H75.0716L76.4616 44.7661H81.8164L83.2114 48.3932H83.2162ZM77.3329 42.5071L79.139 37.8057L80.9451 42.5071H77.328H77.3329Z" fill="#004C97" style="fill:#004C97;fill:color(display-p3 0.0000 0.2980 0.5922);fill-opacity:1;"/>
<path d="M118.81 26.3906H101.953V26.8084H118.81V26.3906Z" fill="#004C97" style="fill:#004C97;fill:color(display-p3 0.0000 0.2980 0.5922);fill-opacity:1;"/>
<path d="M121.346 26.4606L113.148 34.1074L113.463 34.4037L121.66 26.7568L121.346 26.4606Z" fill="#004C97" style="fill:#004C97;fill:color(display-p3 0.0000 0.2980 0.5922);fill-opacity:1;"/>
<path d="M121.57 16.4844H121.125V26.5944H121.57V16.4844Z" fill="#004C97" style="fill:#004C97;fill:color(display-p3 0.0000 0.2980 0.5922);fill-opacity:1;"/>
<path d="M123.522 14.7292L123.32 15.1016L148.367 27.062L148.569 26.6896L123.522 14.7292Z" fill="#004C97" style="fill:#004C97;fill:color(display-p3 0.0000 0.2980 0.5922);fill-opacity:1;"/>
<path d="M206.022 21.1844L205.828 21.5605L223.893 29.7485L224.087 29.3723L206.022 21.1844Z" fill="#004C97" style="fill:#004C97;fill:color(display-p3 0.0000 0.2980 0.5922);fill-opacity:1;"/>
<path d="M172.196 7.9104L149.609 25.8594L149.897 26.1782L172.484 8.22918L172.196 7.9104Z" fill="#004C97" style="fill:#004C97;fill:color(display-p3 0.0000 0.2980 0.5922);fill-opacity:1;"/>
<path d="M169.815 7.77539H159.531V8.1932H169.815V7.77539Z" fill="#004C97" style="fill:#004C97;fill:color(display-p3 0.0000 0.2980 0.5922);fill-opacity:1;"/>
<path d="M203.025 21.3008H174.773V21.7186H203.025V21.3008Z" fill="#004C97" style="fill:#004C97;fill:color(display-p3 0.0000 0.2980 0.5922);fill-opacity:1;"/>
<path d="M172.57 10.4531H172.125V18.9837H172.57V10.4531Z" fill="#004C97" style="fill:#004C97;fill:color(display-p3 0.0000 0.2980 0.5922);fill-opacity:1;"/>
<path d="M204.859 4.09766H204.414V21.2277H204.859V4.09766Z" fill="#004C97" style="fill:#004C97;fill:color(display-p3 0.0000 0.2980 0.5922);fill-opacity:1;"/>
<path d="M145.646 41.127C145.646 40.0848 145.846 39.1114 146.252 38.207C146.659 37.3071 147.222 36.522 147.941 35.8562C148.661 35.1951 149.507 34.6717 150.491 34.2952C151.47 33.9187 152.542 33.7305 153.697 33.7305C154.172 33.7305 154.617 33.758 155.038 33.8131C155.464 33.8682 155.851 33.9417 156.213 34.0381C156.575 34.1299 156.913 34.2355 157.212 34.3549C157.51 34.4743 157.784 34.5982 158.029 34.7222C158.597 35.0114 159.081 35.3374 159.483 35.7047L158.117 37.656C157.755 37.3759 157.354 37.1188 156.908 36.8939C156.526 36.7056 156.076 36.5266 155.552 36.3705C155.033 36.2098 154.456 36.1317 153.829 36.1317C153.002 36.1317 152.263 36.2648 151.612 36.5266C150.961 36.7928 150.413 37.151 149.958 37.6009C149.502 38.0554 149.16 38.5789 148.92 39.1757C148.685 39.7726 148.568 40.4108 148.568 41.0857C148.568 41.7606 148.69 42.4263 148.93 43.0507C149.175 43.6706 149.527 44.2169 149.982 44.6898C150.442 45.1627 150.99 45.5392 151.641 45.8193C152.292 46.0994 153.032 46.2417 153.849 46.2417C154.187 46.2417 154.51 46.2141 154.823 46.1636C155.136 46.1085 155.43 46.0397 155.704 45.957C155.978 45.8698 156.238 45.7734 156.477 45.6632C156.717 45.553 156.937 45.4428 157.138 45.3326C157.603 45.0663 158.024 44.7633 158.401 44.4189L159.899 46.3014C159.444 46.7375 158.92 47.1278 158.313 47.4721C158.058 47.6191 157.765 47.7614 157.442 47.9037C157.119 48.0461 156.766 48.1746 156.384 48.2802C156.007 48.3904 155.591 48.4776 155.151 48.5419C154.71 48.6062 154.241 48.6383 153.746 48.6383C152.948 48.6383 152.195 48.5511 151.485 48.3766C150.775 48.2022 150.114 47.9542 149.517 47.6282C148.915 47.3114 148.377 46.9212 147.897 46.4712C147.422 46.0213 147.011 45.5163 146.678 44.9561C146.345 44.4006 146.086 43.7991 145.91 43.1518C145.729 42.5044 145.641 41.8249 145.641 41.1178L145.646 41.127Z" fill="#A9C23F" style="fill:#A9C23F;fill:color(display-p3 0.6627 0.7608 0.2471);fill-opacity:1;"/>
<path d="M122.269 36.2263H117.125V33.9766H130.267V36.2263H125.128V48.3932H122.269V36.2263Z" fill="#A9C23F" style="fill:#A9C23F;fill:color(display-p3 0.6627 0.7608 0.2471);fill-opacity:1;"/>
<path d="M159.534 8.07037C159.534 9.38807 158.398 10.4532 156.993 10.4532C155.589 10.4532 154.453 9.38807 154.453 8.07037C154.453 6.75268 155.589 5.6875 156.993 5.6875C158.398 5.6875 159.534 6.75727 159.534 8.07037Z" fill="#A9C23F" style="fill:#A9C23F;fill:color(display-p3 0.6627 0.7608 0.2471);fill-opacity:1;"/>
<path d="M101.956 29.0477H96.875V24.2773H101.956V29.0477ZM98.1966 27.808H100.629V25.5262H98.1966V27.808Z" fill="#A9C23F" style="fill:#A9C23F;fill:color(display-p3 0.6627 0.7608 0.2471);fill-opacity:1;"/>
<path d="M174.89 23.7664H169.805V18.9961H174.89V23.7664ZM171.136 22.5268H173.569V20.2449H171.136V22.5268Z" fill="#A9C23F" style="fill:#A9C23F;fill:color(display-p3 0.6627 0.7608 0.2471);fill-opacity:1;"/>
<path d="M123.929 26.6641C123.929 27.9818 122.794 29.047 121.389 29.047C119.984 29.047 118.844 27.9818 118.844 26.6641C118.844 25.3464 119.984 24.2812 121.389 24.2812C122.794 24.2812 123.929 25.351 123.929 26.6641Z" fill="#A9C23F" style="fill:#A9C23F;fill:color(display-p3 0.6627 0.7608 0.2471);fill-opacity:1;"/>
<path d="M207.093 23.8817H202.008V19.1113H207.093V23.8817Z" fill="#A9C23F" style="fill:#A9C23F;fill:color(display-p3 0.6627 0.7608 0.2471);fill-opacity:1;"/>
<path d="M174.893 8.07037C174.893 9.38807 173.758 10.4532 172.348 10.4532C170.938 10.4532 169.812 9.38807 169.812 8.07037C169.812 6.75268 170.948 5.6875 172.348 5.6875C173.748 5.6875 174.893 6.75727 174.893 8.07037Z" fill="#004C97" style="fill:#004C97;fill:color(display-p3 0.0000 0.2980 0.5922);fill-opacity:1;"/>
<path d="M121.447 11.7168C120.042 11.7168 118.906 12.7866 118.906 14.1043C118.906 15.422 120.042 16.4917 121.447 16.4917C122.851 16.4917 123.987 15.422 123.987 14.1043C123.987 12.7866 122.851 11.7168 121.447 11.7168ZM121.447 15.3852C120.693 15.3852 120.081 14.8113 120.081 14.1043C120.081 13.3972 120.693 12.8233 121.447 12.8233C122.2 12.8233 122.812 13.3972 122.812 14.1043C122.812 14.8113 122.205 15.3852 121.447 15.3852Z" fill="#004C97" style="fill:#004C97;fill:color(display-p3 0.0000 0.2980 0.5922);fill-opacity:1;"/>
<path d="M225.576 27.9688C224.172 27.9688 223.031 29.0339 223.031 30.3516C223.031 31.6693 224.172 32.7391 225.576 32.7391C226.981 32.7391 228.117 31.6693 228.117 30.3516C228.117 29.0339 226.981 27.9688 225.576 27.9688ZM225.576 31.6372C224.823 31.6372 224.211 31.0633 224.211 30.3562C224.211 29.6492 224.823 29.0752 225.576 29.0752C226.33 29.0752 226.942 29.6446 226.942 30.3562C226.942 31.0679 226.33 31.6372 225.576 31.6372Z" fill="#004C97" style="fill:#004C97;fill:color(display-p3 0.0000 0.2980 0.5922);fill-opacity:1;"/>
<path d="M151.601 29.0477H146.516V24.2773H151.601V29.0477Z" fill="#004C97" style="fill:#004C97;fill:color(display-p3 0.0000 0.2980 0.5922);fill-opacity:1;"/>
<path d="M207.096 5.20513H202.016V0.439392H207.096V5.20513ZM203.342 3.9609H205.77V1.67904H203.342V3.9609Z" fill="#004C97" style="fill:#004C97;fill:color(display-p3 0.0000 0.2980 0.5922);fill-opacity:1;"/>
</svg>
