<?xml version="1.0" encoding="utf-8"?>
<!-- Generator: Adobe Illustrator 16.0.4, SVG Export Plug-In . SVG Version: 6.00 Build 0)  -->
<!DOCTYPE svg PUBLIC "-//W3C//DTD SVG 1.1//EN" "http://www.w3.org/Graphics/SVG/1.1/DTD/svg11.dtd">
<svg version="1.1" id="A4_Logo" xmlns="http://www.w3.org/2000/svg" xmlns:xlink="http://www.w3.org/1999/xlink" x="0px" y="0px"
	 width="184.251px" height="27.213px" viewBox="0 0 184.251 27.213" enable-background="new 0 0 184.251 27.213"
	 xml:space="preserve">
<g>
	<g>
		<defs>
			<path id="SVGID_1_" d="M148.827,20.232c0,1.907-0.216,3.77-2.782,3.77c-0.871,0-1.48-0.109-1.919-0.344
				c-0.43-0.216-0.7-0.57-0.85-1.111c-0.106,0-4.856,0-5.029,0c0.338,1.785,1.226,3.02,2.712,3.771
				c1.206,0.61,2.763,0.894,4.903,0.894c3.185,0,5.422-0.92,6.649-2.736c1.034-1.529,1.153-3.397,1.153-4.672c0,0,0-13.703,0-13.85
				c-0.142,0-4.668,0-4.809,0c0,0.122,0,1.984,0,1.984s-1.124-2.442-4.362-2.442c-2.094,0-3.852,0.784-5.088,2.271
				c-1.143,1.374-1.772,3.296-1.772,5.412c0,2.29,0.573,4.215,1.661,5.563c1.193,1.487,2.944,2.241,5.199,2.241
				c1.668,0,3.387-0.855,4.308-2.288l0.025-0.034V20.232z M148.156,16.03c-0.558,0.74-1.406,1.133-2.446,1.133
				c-1.001,0-1.813-0.416-2.35-1.196c-0.455-0.665-0.704-1.589-0.704-2.604c0-0.776,0.113-1.883,0.661-2.758
				c0.532-0.854,1.349-1.287,2.423-1.287c1.094,0,1.928,0.43,2.479,1.278c0.578,0.886,0.698,2.009,0.698,2.796
				C148.917,14.458,148.655,15.37,148.156,16.03z"/>
		</defs>
		<use xlink:href="#SVGID_1_"  overflow="visible" fill="#E62F35"/>
		<clipPath id="SVGID_2_">
			<use xlink:href="#SVGID_1_"  overflow="visible"/>
		</clipPath>
		<path clip-path="url(#SVGID_2_)" fill="#E62F35" d="M145.74,9.318c-1.074,0-1.891,0.433-2.423,1.287
			c-0.548,0.875-0.661,1.982-0.661,2.758c0,1.015,0.249,1.939,0.704,2.604c0.536,0.78,1.349,1.196,2.35,1.196
			c1.04,0,1.889-0.393,2.446-1.133c0.499-0.66,0.761-1.572,0.761-2.637c0-0.787-0.12-1.911-0.698-2.796
			C147.667,9.748,146.833,9.318,145.74,9.318z"/>
	</g>
	<path fill="#E62F35" d="M15.121,11.563c0,0,1.535-0.482,2.569-2.255c0.547-0.93,0.837-2.053,0.837-3.246
		c0-4.469-3.891-6.062-7.53-6.062C10.998,0,0.146,0,0,0c0,0.147,0,21.655,0,21.655h5.509v-7.94h4.363
		c1.227,0,2.072,0.474,2.582,1.445c0.447,0.852,0.578,1.984,0.654,3.081l0.031,0.368c0.062,0.79,0.189,2.416,0.577,3.046
		c0.082,0,5.114,0,5.402,0c-0.613-0.864-0.747-3.279-0.812-4.472l-0.021-0.363c-0.113-1.273-0.374-2.335-0.776-3.158
		C16.532,11.714,15.164,11.599,15.121,11.563z M13.042,6.827c0,1.718-0.964,2.666-2.715,2.666H5.485V4.375h4.6
		C10.085,4.375,13.042,4.234,13.042,6.827z"/>
	<g>
		<path fill="#E62F35" d="M76.858,8.122l0.022-0.036c0.874-1.5,3.108-2.589,5.07-2.589c2.271,0,3.871,0.73,4.754,2.174
			c0.771,1.258,0.86,2.824,0.86,3.889c0,0,0,9.949,0,10.095c-0.143,0-5.022,0-5.022,0s0-8.388,0-8.546
			c0-1.311,0.1-3.486-2.659-3.486c-2.119,0-2.874,1.867-2.874,3.465c0,0,0,8.42,0,8.567c-0.141,0-4.879,0-5.021,0
			c0-0.146,0-15.554,0-15.7c0.142,0,4.728,0,4.869,0C76.858,6.08,76.858,8.122,76.858,8.122z"/>
	</g>
	<path fill="#E62F35" d="M95.04,19.822c0,0,1.503,2.292,4.484,2.292c2.26,0,4.102-0.921,5.327-2.665
		c1.066-1.515,1.655-3.646,1.655-5.995c0-2.132-0.582-4.091-1.64-5.519c-1.183-1.595-2.895-2.438-4.946-2.438
		c-3.286,0-4.638,2.198-4.638,2.198V0h-5.021v21.655h4.778V19.822z M98.307,18.292c-1.141,0-1.984-0.433-2.509-1.283
		c-0.47-0.766-0.697-1.868-0.697-3.372c0-3.184,1.67-4.318,3.235-4.318c2.321,0,3.147,2.23,3.147,4.318
		C101.484,15.887,100.65,18.292,98.307,18.292z"/>
	<g>
		<path fill="#E62F35" d="M136.959,5.758c0,0.117,0,4.392,0,4.576c-1.395-0.375-3.486-0.58-4.861,0.874
			c-0.649,0.687-1.009,1.636-1.009,2.672c0,0,0,7.628,0,7.774c-0.142,0-4.881,0-5.021,0c0-0.146,0-15.554,0-15.7
			c0.141,0,4.729,0,4.869,0c0,0.133,0,2.779,0,2.779C132.13,5.685,135.204,5.486,136.959,5.758z"/>
	</g>
	<g>
		<path fill="#E62F35" d="M184.251,5.758c0,0.117,0,4.392,0,4.576c-1.395-0.375-3.486-0.58-4.86,0.874
			c-0.651,0.687-1.01,1.636-1.01,2.672c0,0,0,7.628,0,7.774c-0.143,0-4.882,0-5.022,0c0-0.146,0-15.554,0-15.7
			c0.141,0,4.729,0,4.87,0c0,0.133,0,2.779,0,2.779C179.422,5.685,182.494,5.486,184.251,5.758z"/>
	</g>
	<g>
		<path fill="#E62F35" d="M58.731,14.997h11.592c0,0,0.294-4.583-2.316-7.206c-1.463-1.467-3.454-2.294-5.854-2.294
			c-2.266,0-4.38,0.826-5.952,2.326c-1.604,1.534-2.489,3.641-2.489,5.935c0,2.552,0.818,4.68,2.368,6.154
			c1.515,1.439,3.657,2.202,6.196,2.202c1.805,0,3.459-0.417,4.778-1.2c1.45-0.863,2.428-2.115,2.911-3.72c-0.192,0-4.651,0-4.733,0
			c-0.52,0.961-1.624,1.555-2.895,1.555C58.668,18.749,58.731,14.997,58.731,14.997z M58.722,12.246l0.014-0.086
			c0.322-2.036,1.632-3.301,3.418-3.301c1.697,0,3.049,1.422,3.146,3.309l0.005,0.078H58.722z"/>
	</g>
	<g>
		<path fill="#E62F35" d="M112.808,14.997h11.594c0,0,0.293-4.583-2.318-7.206c-1.462-1.467-3.454-2.294-5.854-2.294
			c-2.266,0-4.38,0.826-5.952,2.326c-1.605,1.534-2.489,3.641-2.489,5.935c0,2.552,0.819,4.68,2.368,6.154
			c1.515,1.439,3.657,2.202,6.195,2.202c1.809,0,3.461-0.417,4.78-1.2c1.449-0.863,2.427-2.115,2.91-3.72c-0.191,0-4.651,0-4.733,0
			c-0.521,0.961-1.623,1.555-2.895,1.555C112.746,18.749,112.808,14.997,112.808,14.997z M112.798,12.246l0.013-0.086
			c0.322-2.036,1.632-3.301,3.419-3.301c1.697,0,3.049,1.422,3.146,3.309l0.004,0.078H112.798z"/>
	</g>
	<g>
		<path fill="#E62F35" d="M160.036,14.997h11.593c0,0,0.295-4.583-2.316-7.206c-1.464-1.467-3.452-2.294-5.853-2.294
			c-2.266,0-4.381,0.826-5.953,2.326c-1.605,1.534-2.49,3.641-2.49,5.935c0,2.552,0.82,4.68,2.369,6.154
			c1.514,1.439,3.656,2.202,6.196,2.202c1.806,0,3.459-0.417,4.778-1.2c1.45-0.863,2.429-2.115,2.91-3.72c-0.191,0-4.651,0-4.732,0
			c-0.52,0.961-1.623,1.555-2.896,1.555C159.972,18.749,160.036,14.997,160.036,14.997z M160.027,12.246l0.013-0.086
			c0.323-2.036,1.632-3.301,3.42-3.301c1.696,0,3.048,1.422,3.144,3.309l0.006,0.078H160.027z"/>
	</g>
	<g>
		<path fill="#E62F35" d="M47.288,10.253c-0.165-1.643-2.369-1.545-2.369-1.545c-0.567,0-2.295,0-2.295,1.265
			c0,1.27,2.255,1.681,4.437,2.079c0.516,0.096,1.004,0.184,1.461,0.285h0.001c3.844,0.771,3.954,3.853,3.954,4.201
			c0,1.912-0.812,3.378-2.416,4.354c-1.294,0.787-3.099,1.222-5.082,1.222c-1.99,0-3.704-0.366-4.957-1.052
			c-1.513-0.832-2.396-2.132-2.627-3.868c0.163,0,4.703,0,4.808,0c0,0,0.361,1.709,2.748,1.709c1.207,0,2.506-0.55,2.506-1.754
			c0-1.176-1.405-1.49-2.334-1.696c0,0-1.268-0.292-1.775-0.399c-1.415-0.3-2.876-0.607-3.956-1.284
			c-1.221-0.764-1.789-1.874-1.789-3.492c0-1.687,0.809-2.963,2.401-3.793c1.651-0.859,3.674-0.987,4.734-0.987
			c1.972,0,3.572,0.326,4.752,0.972c1.45,0.791,2.26,2.069,2.413,3.795c-0.156,0-4.492,0-4.617,0"/>
	</g>
	<g>
		<path fill="#E62F35" d="M34.095,7.887c-1.507-1.542-3.621-2.39-5.95-2.39c-4.767,0-8.228,3.499-8.228,8.322
			c0,4.806,3.461,8.294,8.228,8.294c4.787,0,8.26-3.489,8.26-8.294C36.404,11.517,35.585,9.409,34.095,7.887z M28.145,18.292
			c-1.121,0-1.972-0.499-2.532-1.48c-0.435-0.764-0.674-1.827-0.674-2.992c0-1.167,0.239-2.234,0.674-3.007
			c0.561-0.992,1.413-1.495,2.532-1.495c2.388,0,3.237,2.325,3.237,4.501C31.382,15.983,30.532,18.292,28.145,18.292z"/>
	</g>
</g>
<g>
</g>
<g>
</g>
<g>
</g>
<g>
</g>
<g>
</g>
<g>
</g>
</svg>
